<svg xmlns="http://www.w3.org/2000/svg" width="40" height="40" viewBox="0 0 40 40">
  <rect x="2" y="2" width="36" height="36" rx="9" fill="#8B7CF6"/>
  <ellipse cx="20" cy="11" rx="10" ry="4" fill="#FFFFFF"/>
  <path d="M10 11v7c0 2.2 4.5 4 10 4s10-1.8 10-4v-7c0 2.2-4.5 4-10 4s-10-1.8-10-4Z"
        fill="#E6E2FF"/>
  <path d="M10 18v7c0 2.2 4.5 4 10 4s10-1.8 10-4v-7c0 2.2-4.5 4-10 4s-10-1.8-10-4Z"
        fill="#FFFFFF"/>
  <path d="m15 32-4-3 4-3M25 26l4 3-4 3" fill="none" stroke="#5FE0B9"
        stroke-width="2.4" stroke-linecap="round" stroke-linejoin="round"/>
</svg>
